<?xml version="1.0" encoding="UTF-8" standalone="no" ?>
<svg xmlns="http://www.w3.org/2000/svg" xmlns:xlink="http://www.w3.org/1999/xlink" version="1.1" width="1080" height="1080" viewBox="0 0 1080 1080" xml:space="preserve">
<defs>
</defs>
<rect x="0" y="0" width="100%" height="100%" fill="transparent"></rect>
<g transform="matrix(1 0 0 1 540 540)" id="7bac5067-8493-44f3-ba18-d2f2c30bfb8d"  >
<rect style="stroke: none; stroke-width: 1; stroke-dasharray: none; stroke-linecap: butt; stroke-dashoffset: 0; stroke-linejoin: miter; stroke-miterlimit: 4; fill: rgb(255,255,255); fill-rule: nonzero; opacity: 1; visibility: hidden;" vector-effect="non-scaling-stroke"  x="-540" y="-540" rx="0" ry="0" width="1080" height="1080" />
</g>
<g transform="matrix(1 0 0 1 540 540)" id="45927990-652c-474a-b260-8d37a4f668a0"  >
</g>
<g transform="matrix(45 0 0 45 540 540)"  >
<path style="stroke: rgb(0,0,0); stroke-width: 1; stroke-dasharray: none; stroke-linecap: butt; stroke-dashoffset: 0; stroke-linejoin: miter; stroke-miterlimit: 4; fill: rgb(255,255,255); fill-rule: evenodd; opacity: 1;"  transform=" translate(-12, -12)" d="M 18.685 19.097 C 20.643623351416565 17.256615890039704 21.753109721033866 14.687602916084087 21.75 11.999999999999996 C 21.75 6.615 17.384999999999998 2.25 12 2.25 C 6.615000000000002 2.25 2.25 6.615 2.25 12 C 2.2468902789661365 14.687602916084089 3.356376648583436 17.256615890039704 5.3149999999999995 19.097 C 7.1219356630409605 20.80389296911062 9.514343358676369 21.753340630519858 12 21.75 C 14.48565664132363 21.753340630519855 16.87806433695904 20.80389296911062 18.685 19.097 z M 6.145 17.812 C 7.567205654895703 16.032701954231637 9.722157745783917 14.997736065319998 11.999999999999996 15 C 14.27784225421608 14.997736065319996 16.432794345104295 16.032701954231637 17.855 17.812 C 16.30779885618975 19.374806796079216 14.199133546480605 20.252847107790725 12 20.25 C 9.800866453519395 20.25284710779073 7.692201143810253 19.374806796079216 6.145000000000001 17.812 z M 15.75 9 C 15.75 11.071067811865476 14.071067811865476 12.75 12 12.75 C 9.928932188134524 12.75 8.25 11.071067811865476 8.25 9 C 8.25 6.9289321881345245 9.928932188134524 5.25 12 5.25 C 14.071067811865476 5.25 15.75 6.928932188134524 15.75 8.999999999999998 z" stroke-linecap="round" />
</g>
</svg>